<?xml version="1.0" standalone="no"?>
<!DOCTYPE svg PUBLIC "-//W3C//DTD SVG 20010904//EN"
 "http://www.w3.org/TR/2001/REC-SVG-20010904/DTD/svg10.dtd">
<svg version="1.0" xmlns="http://www.w3.org/2000/svg"
 width="1920.000000pt" height="2358.000000pt" viewBox="0 0 1920.000000 2358.000000"
 preserveAspectRatio="xMidYMid meet">

<g transform="translate(0.000000,2358.000000) scale(0.100000,-0.100000)"
fill="#000000" stroke="none">
<path d="M7990 22719 c-99 -5 -199 -16 -250 -28 -47 -11 -119 -22 -160 -26
-41 -3 -106 -13 -145 -21 -38 -8 -113 -24 -165 -35 -168 -35 -184 -39 -240
-61 -70 -27 -80 -35 -80 -64 0 -16 9 -28 29 -38 25 -14 38 -14 102 -1 41 8 95
21 120 29 25 8 87 19 137 25 49 6 108 18 131 26 39 13 165 31 496 71 291 34
894 29 1225 -12 63 -7 158 -18 210 -24 52 -6 134 -20 182 -31 48 -11 123 -24
167 -29 43 -5 112 -18 152 -28 41 -11 128 -32 194 -47 66 -15 131 -33 145 -40
14 -7 48 -16 75 -20 28 -4 65 -14 84 -21 18 -8 57 -20 85 -28 78 -21 319 -107
334 -119 12 -10 33 -18 152 -61 25 -9 54 -21 65 -26 75 -35 140 -59 184 -69
29 -6 65 -18 80 -26 16 -8 75 -19 132 -25 270 -26 606 -80 684 -110 17 -6 62
-17 100 -24 39 -7 90 -20 115 -29 25 -9 70 -24 100 -33 75 -22 205 -70 265
-99 28 -13 62 -26 78 -30 25 -5 210 -91 247 -115 8 -5 31 -16 50 -25 63 -27
242 -125 283 -155 23 -17 45 -30 50 -30 5 0 21 -9 35 -20 45 -34 164 -110 173
-110 5 0 14 -9 21 -20 7 -11 18 -20 24 -20 6 0 27 -12 47 -27 19 -16 48 -37
63 -48 15 -11 39 -30 53 -43 14 -13 68 -57 120 -98 146 -117 331 -294 460
-442 35 -39 75 -84 88 -100 25 -28 105 -137 185 -252 25 -37 62 -98 82 -136
20 -37 43 -75 50 -84 8 -8 26 -42 41 -75 15 -33 38 -83 51 -112 13 -28 24 -57
24 -63 0 -6 9 -28 19 -48 11 -21 24 -63 30 -95 6 -31 15 -66 21 -78 7 -11 23
-72 36 -135 18 -87 24 -145 24 -247 0 -72 3 -142 6 -154 3 -12 19 -27 35 -34
41 -17 63 6 78 81 7 35 18 60 27 64 37 14 112 5 160 -19 27 -14 54 -25 59 -25
24 0 149 -68 250 -135 120 -81 309 -255 397 -367 96 -123 133 -171 165 -223
18 -27 41 -61 50 -74 10 -13 25 -36 33 -52 45 -85 101 -178 110 -184 5 -3 14
-24 20 -47 7 -22 22 -57 35 -77 12 -20 42 -85 65 -146 24 -60 49 -122 57 -137
8 -15 22 -51 32 -80 10 -29 32 -91 48 -138 48 -137 81 -252 87 -301 3 -26 14
-62 25 -80 11 -19 24 -61 29 -94 6 -33 24 -125 41 -205 17 -80 35 -196 41
-259 6 -62 13 -117 16 -122 2 -5 11 -61 19 -126 12 -89 15 -240 15 -633 -1
-505 -7 -638 -40 -850 -5 -36 -10 -101 -10 -145 -1 -44 -5 -114 -10 -155 -5
-41 -16 -142 -25 -225 -8 -82 -21 -204 -30 -270 -8 -66 -17 -158 -20 -205 -4
-47 -15 -119 -26 -160 -13 -49 -23 -133 -30 -250 -5 -96 -13 -204 -18 -240
-11 -72 -24 -205 -47 -470 -43 -495 -36 -479 -195 -455 -123 19 -127 21 -133
58 -3 18 -7 210 -10 427 -4 439 -18 698 -47 900 -10 74 -22 194 -25 265 -3 81
-14 170 -29 235 -13 58 -29 137 -34 175 -6 39 -22 138 -37 220 -14 83 -29 177
-34 210 -5 33 -18 80 -28 105 -11 25 -23 76 -27 115 -4 38 -13 86 -21 105 -8
19 -20 67 -28 105 -17 88 -32 148 -62 249 -13 44 -24 92 -24 108 0 16 -11 55
-25 88 -14 33 -25 69 -25 80 0 11 -9 46 -20 78 -11 31 -34 108 -50 169 -16 62
-36 125 -44 140 -7 16 -17 53 -21 83 -4 30 -14 67 -21 82 -8 15 -21 57 -29 93
-9 37 -20 74 -25 83 -16 30 -60 189 -60 216 0 14 -11 47 -24 73 -23 47 -55
133 -81 223 -7 25 -23 70 -35 100 -12 30 -29 75 -37 100 -9 25 -26 68 -38 95
-39 87 -53 118 -80 185 -48 114 -172 353 -240 460 -33 52 -137 208 -160 239
-11 16 -29 41 -40 57 -28 42 -156 187 -246 279 -68 70 -197 180 -264 225 -13
8 -65 43 -116 77 -52 34 -102 69 -111 78 -10 8 -21 15 -24 15 -7 0 -248 105
-287 125 -16 8 -34 15 -41 15 -32 0 -49 39 -48 107 1 38 -7 149 -17 248 -17
154 -25 198 -61 305 -22 68 -46 128 -53 132 -22 14 -54 8 -72 -12 -18 -19 -18
-23 -1 -98 21 -94 33 -141 52 -207 9 -33 15 -108 17 -218 2 -158 1 -169 -18
-183 -11 -8 -29 -12 -40 -9 -81 23 -506 69 -682 74 -32 1 -52 37 -67 127 -8
43 -21 95 -29 114 -8 19 -18 59 -22 89 -4 29 -15 68 -25 85 -10 17 -24 51 -30
76 -12 43 -81 210 -101 240 -5 8 -14 26 -20 40 -15 36 -27 57 -91 169 -32 54
-58 102 -58 106 0 4 -10 18 -22 30 -13 12 -31 35 -40 51 -10 16 -36 54 -58 84
-23 30 -52 71 -65 90 -69 100 -89 127 -105 145 -10 11 -56 61 -102 110 -46 50
-90 98 -98 109 -22 26 -220 221 -296 291 -63 58 -117 103 -185 155 -18 14 -37
30 -43 35 -6 6 -22 18 -36 27 -14 10 -43 31 -65 47 -22 16 -78 56 -125 87 -47
32 -92 63 -100 71 -21 18 -105 74 -228 149 -113 70 -168 87 -195 59 -43 -43
-12 -82 124 -160 78 -44 320 -201 329 -213 3 -4 19 -16 35 -26 17 -11 71 -51
120 -90 50 -39 95 -74 100 -78 32 -25 109 -88 165 -137 114 -100 438 -434 479
-494 8 -12 36 -47 61 -77 56 -66 121 -155 141 -192 8 -14 51 -81 97 -149 45
-68 85 -134 89 -148 3 -14 16 -39 27 -56 12 -17 41 -74 65 -126 24 -52 54
-116 67 -144 13 -27 26 -66 30 -85 3 -19 10 -39 14 -45 14 -18 67 -218 74
-276 8 -77 -4 -92 -80 -96 -33 -1 -221 -10 -419 -18 -198 -9 -414 -22 -480
-30 -66 -8 -203 -19 -305 -26 -102 -6 -208 -17 -235 -25 -28 -7 -138 -20 -244
-29 -107 -9 -197 -17 -200 -20 -7 -4 -209 -25 -716 -75 -286 -29 -467 -39
-667 -40 l-216 0 -59 44 c-32 24 -67 53 -77 65 -11 12 -23 21 -28 21 -5 0 -30
17 -56 39 -45 37 -127 96 -212 151 -20 14 -64 43 -96 64 -33 22 -79 50 -103
63 -24 12 -50 28 -58 35 -31 25 -470 244 -568 283 -38 15 -76 32 -84 39 -14
11 -109 46 -196 71 -27 8 -86 29 -130 46 -44 17 -108 36 -142 43 -33 7 -72 19
-85 28 -12 8 -47 18 -77 22 -29 4 -79 13 -110 21 -31 8 -100 21 -153 29 -54 8
-102 17 -107 21 -6 3 -61 10 -123 15 -62 6 -171 17 -243 26 -125 16 -139 16
-370 -5 -251 -23 -428 -50 -530 -81 -33 -10 -75 -22 -94 -25 -19 -4 -48 -16
-65 -26 -17 -10 -37 -19 -44 -19 -28 0 -316 -131 -363 -164 -13 -9 -62 -42
-109 -72 -136 -89 -237 -176 -368 -318 -71 -76 -182 -225 -182 -243 0 -3 -11
-18 -25 -34 -33 -40 -46 -92 -33 -129 8 -25 15 -30 43 -30 28 0 37 7 71 56 21
31 44 66 51 78 7 12 21 32 33 46 11 14 43 52 69 86 94 116 350 364 378 364 7
0 22 11 35 24 13 13 70 50 128 81 58 32 116 64 130 71 14 8 31 14 38 14 7 0
38 14 69 30 31 17 63 30 72 30 10 0 21 4 27 9 19 18 297 86 464 113 81 13 683
13 800 -1 160 -18 419 -68 525 -101 33 -10 78 -21 100 -25 22 -4 56 -16 75
-25 20 -10 61 -23 92 -29 62 -11 283 -96 309 -117 8 -8 22 -14 31 -14 8 0 35
-11 60 -24 24 -13 55 -27 69 -31 23 -7 191 -88 254 -122 17 -9 38 -20 48 -25
51 -25 196 -104 227 -124 234 -151 410 -284 410 -309 0 -34 -39 -38 -270 -31
-124 4 -263 11 -310 16 -47 5 -152 14 -235 20 -82 6 -193 17 -245 25 -52 8
-122 17 -155 20 -33 3 -114 15 -180 25 -66 10 -169 21 -229 25 -60 4 -143 15
-184 26 -63 16 -111 19 -301 19 -173 0 -238 -4 -276 -15 -27 -9 -81 -20 -120
-26 -95 -13 -289 -71 -398 -118 -27 -12 -57 -21 -67 -21 -9 0 -23 -7 -30 -15
-7 -9 -43 -30 -79 -48 -36 -18 -92 -48 -124 -67 -32 -19 -73 -44 -91 -55 -18
-11 -60 -38 -92 -59 -54 -36 -84 -59 -224 -173 -25 -20 -106 -98 -180 -172
-149 -149 -243 -267 -403 -506 -26 -38 -55 -81 -64 -95 -10 -14 -25 -38 -34
-55 -23 -44 -69 -125 -92 -164 -45 -75 -85 -154 -141 -276 -15 -33 -38 -81
-52 -108 -13 -26 -24 -53 -24 -59 0 -7 -11 -35 -24 -63 -35 -75 -116 -288
-116 -305 0 -8 -9 -30 -20 -48 -11 -18 -24 -49 -29 -70 -5 -20 -18 -59 -29
-87 -27 -68 -41 -110 -59 -175 -8 -30 -21 -66 -28 -80 -12 -23 -22 -48 -61
-170 -9 -25 -29 -85 -46 -135 -17 -49 -38 -118 -48 -152 -10 -35 -23 -69 -29
-77 -6 -7 -16 -40 -22 -72 -6 -32 -17 -71 -25 -86 -8 -16 -19 -49 -24 -76 -6
-26 -24 -94 -41 -152 -17 -58 -36 -132 -43 -165 -7 -33 -20 -75 -30 -93 -9
-18 -21 -66 -25 -105 -5 -40 -18 -108 -29 -152 -24 -98 -47 -206 -63 -305 -6
-41 -17 -91 -24 -110 -7 -19 -15 -71 -19 -115 -4 -44 -15 -107 -25 -140 -11
-33 -22 -103 -26 -155 -3 -52 -15 -153 -25 -225 -45 -295 -51 -346 -60 -481
-5 -78 -16 -172 -25 -210 -12 -50 -19 -151 -25 -364 -4 -162 -11 -303 -15
-312 -17 -41 -71 -54 -316 -75 -63 -5 -68 -4 -82 18 -9 16 -17 63 -21 134 -3
61 -13 175 -21 255 -9 80 -20 237 -24 350 -5 113 -13 216 -19 230 -14 37 -31
199 -42 415 -12 223 -24 384 -50 665 -11 113 -22 268 -25 345 -6 145 -18 321
-36 510 -15 162 -27 1014 -18 1360 5 238 11 321 27 400 11 55 22 130 26 167 3
37 13 95 22 130 9 35 22 92 30 128 34 173 46 215 64 245 11 18 20 45 20 61 0
16 11 53 25 82 14 30 25 59 25 66 0 13 50 134 74 181 9 17 16 37 16 46 0 8 11
30 25 49 14 19 25 40 25 46 0 17 66 140 119 224 22 36 48 79 57 95 10 17 35
53 58 82 23 28 52 68 66 88 14 21 37 51 53 68 15 16 27 33 27 36 0 8 178 191
215 222 61 50 80 102 47 132 -13 12 -25 14 -52 7 -54 -13 -143 -53 -174 -78
-16 -12 -33 -22 -37 -22 -5 0 -34 -16 -65 -36 -87 -56 -180 -97 -204 -89 -25
8 -25 25 0 72 11 21 20 47 20 58 0 11 10 36 22 55 11 19 45 81 73 136 29 56
61 114 72 130 45 66 73 110 73 117 0 12 62 97 71 97 5 0 9 6 9 13 0 14 110
154 220 278 115 131 425 410 535 482 22 14 58 39 80 55 22 15 76 48 120 72
251 141 333 179 505 237 25 8 70 26 101 39 31 13 65 24 75 24 18 0 106 27 202
61 30 10 62 19 72 19 28 0 70 39 70 65 0 31 -22 43 -116 60 -41 8 -83 19 -92
24 -9 4 -34 12 -56 15 -21 4 -59 18 -85 31 -25 13 -53 26 -62 29 -9 2 -29 20
-43 39 l-26 34 19 45 c19 46 130 155 174 171 12 4 24 11 27 15 18 24 223 155
262 168 13 3 34 15 47 25 13 10 46 29 75 43 113 53 165 76 175 76 6 0 25 9 43
20 18 11 42 20 53 20 11 0 36 8 55 19 19 10 76 30 125 45 50 15 126 39 170 52
44 13 94 24 110 24 33 0 166 34 205 53 18 9 26 22 28 45 4 44 -13 62 -58 62
-91 0 -147 30 -137 73 4 13 15 28 24 32 60 23 273 56 573 90 166 19 585 19
700 0 47 -8 130 -19 185 -25 166 -19 542 -98 583 -124 6 -3 34 -11 64 -16 54
-10 91 -23 258 -90 52 -21 106 -42 120 -45 14 -4 44 -18 67 -31 23 -13 46 -24
51 -24 13 0 200 -91 277 -134 33 -19 74 -41 92 -49 17 -8 58 -32 91 -54 32
-21 98 -63 146 -93 49 -30 109 -71 134 -91 26 -19 72 -53 103 -75 191 -134
440 -361 734 -669 68 -72 285 -332 285 -343 0 -5 11 -19 25 -32 24 -22 85
-105 111 -151 6 -11 21 -30 33 -43 11 -12 21 -27 21 -32 0 -6 7 -19 15 -29 8
-11 28 -37 45 -59 16 -21 30 -44 30 -51 0 -6 9 -20 20 -30 11 -10 20 -24 20
-31 0 -7 11 -25 23 -41 13 -15 41 -59 63 -96 21 -37 49 -85 61 -105 12 -20 33
-59 47 -87 34 -66 83 -125 106 -125 35 0 49 12 56 44 6 34 -4 62 -54 151 -16
28 -43 76 -60 108 -18 32 -41 70 -52 84 -11 14 -20 30 -20 35 0 21 -213 334
-294 434 -14 18 -26 35 -26 38 0 3 -31 46 -70 95 -38 48 -70 93 -70 99 0 6 -6
15 -14 19 -8 4 -65 67 -126 138 -134 156 -380 402 -545 545 -66 57 -129 112
-140 122 -11 10 -56 44 -100 75 -44 32 -82 61 -83 65 -2 5 -18 15 -35 23 -18
8 -50 29 -72 45 -112 84 -322 215 -450 279 -22 11 -47 25 -55 30 -8 5 -40 21
-70 34 -30 14 -99 46 -152 71 -53 25 -100 46 -103 46 -3 0 -30 10 -58 23 -52
23 -114 45 -257 93 -41 14 -95 32 -120 40 -25 9 -63 20 -85 26 -234 58 -309
73 -515 103 -58 9 -139 21 -180 27 -44 6 -211 11 -405 11 -299 0 -349 -3 -530
-27 -276 -36 -379 -55 -458 -82 -38 -13 -81 -24 -97 -24 -16 0 -58 -11 -92
-24 -35 -13 -76 -28 -93 -33 -19 -5 -33 -18 -39 -36 -16 -44 3 -79 57 -107 27
-15 47 -32 47 -42 0 -18 -80 -59 -160 -83 -92 -28 -187 -64 -258 -99 -40 -20
-77 -36 -83 -36 -6 0 -23 -8 -37 -19 -15 -10 -38 -22 -52 -26 -14 -4 -36 -15
-50 -25 -14 -10 -50 -30 -80 -45 -30 -15 -64 -35 -75 -45 -11 -10 -31 -21 -45
-25 -14 -4 -32 -14 -40 -21 -29 -28 -96 -77 -150 -112 -30 -19 -93 -73 -138
-119 -83 -82 -84 -84 -89 -142 -9 -99 9 -126 145 -223 23 -16 42 -38 42 -48 0
-25 -64 -65 -151 -94 -42 -13 -94 -33 -115 -44 -22 -10 -52 -22 -68 -26 -16
-4 -41 -16 -54 -27 -14 -10 -30 -19 -36 -19 -6 0 -22 -6 -36 -14 -88 -48 -191
-102 -226 -120 -22 -12 -58 -35 -80 -52 -21 -17 -64 -46 -94 -65 -30 -18 -64
-41 -75 -52 -11 -10 -67 -56 -125 -102 -233 -184 -457 -430 -658 -719 -30 -43
-32 -46 -81 -126 -76 -121 -206 -384 -243 -490 -9 -25 -21 -58 -27 -75 -45
-127 -52 -192 -23 -218 28 -25 49 -21 139 25 61 32 85 40 94 31 16 -16 6 -38
-57 -134 -31 -46 -60 -93 -65 -104 -5 -11 -25 -47 -44 -80 -45 -81 -145 -279
-145 -289 0 -4 -9 -21 -20 -37 -12 -16 -27 -50 -35 -76 -7 -27 -25 -79 -40
-118 -14 -38 -33 -96 -41 -128 -8 -32 -21 -71 -29 -87 -8 -16 -15 -42 -15 -57
-1 -15 -10 -53 -21 -83 -20 -53 -27 -89 -63 -305 -9 -55 -23 -138 -31 -185 -8
-47 -17 -116 -20 -155 -3 -38 -15 -171 -26 -295 -18 -187 -20 -266 -15 -470 3
-135 10 -299 15 -365 6 -66 15 -223 21 -350 6 -126 15 -273 20 -325 5 -52 14
-187 20 -300 6 -113 17 -286 25 -385 9 -99 20 -261 25 -360 5 -99 16 -229 25
-290 8 -60 20 -207 25 -325 5 -118 14 -237 19 -265 5 -27 14 -115 21 -195 6
-80 17 -212 25 -295 8 -82 20 -220 27 -305 16 -185 12 -583 -6 -620 -11 -25
-13 -25 -121 -22 -68 2 -141 -3 -191 -12 -100 -18 -221 -74 -281 -129 -47 -43
-126 -156 -138 -197 -4 -14 -18 -44 -31 -67 -13 -23 -24 -55 -24 -71 0 -16
-10 -73 -22 -128 -21 -89 -23 -125 -23 -359 0 -209 4 -280 18 -360 10 -55 22
-143 27 -195 5 -52 16 -115 25 -140 9 -25 22 -79 30 -120 7 -41 29 -131 49
-200 20 -69 36 -133 36 -143 0 -10 9 -35 20 -57 11 -21 24 -55 29 -77 8 -35
34 -104 66 -178 8 -16 26 -59 40 -95 24 -58 172 -357 282 -573 24 -45 50 -102
59 -127 8 -25 24 -63 34 -85 10 -22 25 -60 34 -85 8 -25 35 -103 61 -175 25
-71 53 -155 62 -185 8 -30 24 -66 34 -79 11 -13 19 -28 19 -34 0 -21 110 -175
163 -227 80 -79 107 -98 206 -141 70 -31 107 -41 192 -50 57 -6 110 -16 117
-23 15 -15 47 -129 61 -223 6 -39 16 -84 22 -99 5 -16 15 -64 20 -109 5 -44
18 -109 29 -145 10 -36 21 -87 24 -115 4 -27 15 -79 26 -115 26 -90 60 -244
60 -273 0 -13 11 -56 25 -95 14 -39 25 -82 25 -94 0 -13 11 -54 25 -93 13 -38
25 -80 25 -93 0 -13 17 -76 39 -141 21 -65 42 -138 46 -162 4 -24 14 -57 23
-74 8 -16 21 -52 28 -80 16 -60 60 -186 98 -275 15 -36 31 -78 35 -95 5 -16
18 -46 29 -65 12 -19 22 -41 22 -49 0 -21 111 -251 196 -406 24 -44 53 -99 64
-121 11 -23 26 -47 34 -53 8 -6 20 -26 27 -44 7 -18 20 -41 29 -52 9 -11 41
-60 71 -110 57 -95 68 -111 137 -201 23 -31 42 -61 42 -67 0 -5 10 -20 23 -32
12 -12 42 -51 67 -86 25 -35 79 -104 120 -154 41 -49 86 -103 98 -120 103
-133 508 -541 712 -716 215 -186 478 -394 620 -491 36 -24 93 -64 125 -88 89
-65 202 -140 212 -140 5 0 20 -11 33 -25 13 -14 28 -25 33 -25 10 0 83 -45
164 -101 23 -16 46 -29 51 -29 5 0 21 -9 34 -20 14 -11 72 -43 130 -73 57 -29
118 -62 134 -73 16 -11 63 -36 104 -56 161 -77 227 -108 235 -108 4 0 19 -9
34 -19 15 -11 51 -28 81 -39 30 -10 105 -40 165 -66 61 -26 126 -52 145 -57
19 -6 53 -19 75 -29 37 -17 220 -71 358 -106 32 -7 71 -21 87 -29 15 -8 55
-17 87 -21 32 -3 119 -16 193 -29 407 -71 497 -79 900 -79 397 0 650 22 883
75 49 11 123 24 167 29 43 5 95 16 116 25 21 8 67 22 103 30 36 8 107 26 156
40 50 14 113 31 140 38 28 7 61 21 75 30 14 9 43 20 65 25 43 11 100 33 240
93 50 22 97 39 106 39 8 0 30 11 49 25 19 14 39 25 44 25 9 0 145 64 221 104
11 5 67 35 125 64 58 30 132 69 165 86 34 17 74 41 89 54 16 12 33 22 39 22 6
0 18 6 26 14 9 8 39 26 66 42 28 15 63 38 78 50 16 13 34 24 41 24 6 0 40 20
74 45 34 25 64 45 67 45 10 0 126 80 235 161 41 31 89 64 105 73 41 23 74 48
189 141 54 44 118 94 141 110 140 97 572 497 746 690 237 265 305 343 367 425
31 41 77 101 102 132 25 31 68 89 95 129 28 40 58 80 68 88 9 9 17 20 17 27 0
6 11 26 25 45 28 37 99 147 124 191 9 15 36 62 61 104 73 123 98 167 120 209
11 22 27 51 34 65 8 14 27 54 42 90 16 36 33 72 40 80 6 8 17 32 23 52 7 20
19 42 27 48 7 7 14 22 14 34 0 11 11 43 24 71 13 27 34 77 46 110 12 33 31 83
42 110 11 28 23 64 26 80 2 17 14 43 24 58 11 15 22 47 25 70 3 23 22 96 43
162 21 66 42 138 46 160 4 22 15 61 25 87 10 25 21 70 25 100 4 29 15 76 24
103 10 28 21 68 24 90 9 51 42 207 67 310 10 45 19 98 19 119 0 21 11 70 24
109 14 42 26 108 29 157 3 47 15 125 26 173 12 48 21 99 21 112 0 49 23 127
43 150 19 20 37 26 115 34 79 9 107 17 195 59 84 40 115 62 166 114 34 36 70
76 79 90 9 14 30 44 45 68 34 50 87 162 87 182 0 8 11 29 25 48 14 19 25 43
25 54 0 25 55 187 104 309 20 48 36 95 36 103 0 8 11 32 25 52 14 20 25 43 25
50 0 17 97 212 116 233 8 8 14 21 14 28 0 6 32 76 71 154 117 235 134 275 190
452 18 55 38 109 45 120 7 11 16 45 20 75 4 30 15 73 25 95 9 22 20 63 24 90
4 28 13 70 21 95 22 67 42 197 58 365 8 83 23 182 32 220 20 80 32 459 15 478
-12 15 -41 156 -41 199 0 19 -7 61 -16 93 -46 178 -149 317 -291 392 -99 53
-236 77 -373 67 -85 -7 -88 -6 -100 17 -20 37 -5 676 20 884 11 88 24 229 30
314 6 84 15 174 20 200 5 25 17 118 26 206 8 88 18 163 21 168 2 4 11 90 18
190 7 100 20 210 29 245 9 34 21 124 26 200 5 75 21 254 35 397 14 143 30 330
35 415 6 85 18 245 26 355 18 226 19 596 4 760 -6 61 -17 187 -25 280 -16 183
-48 441 -64 502 -5 21 -12 61 -15 90 -4 28 -14 69 -22 89 -9 21 -22 74 -29
118 -7 45 -20 101 -28 126 -9 25 -25 79 -37 120 -12 41 -31 100 -42 130 -11
30 -22 69 -24 85 -3 17 -16 53 -29 80 -13 28 -38 88 -56 135 -18 47 -50 122
-71 167 -21 46 -38 88 -38 96 0 7 -7 22 -15 34 -9 12 -34 57 -57 100 -22 43
-49 94 -60 113 -19 36 -138 226 -173 276 -95 136 -283 344 -401 441 -36 30
-58 47 -169 129 -21 16 -57 38 -80 50 -22 11 -62 33 -90 47 -65 35 -150 64
-254 88 -106 24 -128 38 -136 86 -4 21 -13 68 -21 105 -8 37 -14 81 -14 98 0
17 -11 57 -25 90 -14 33 -25 67 -25 77 0 10 -6 29 -13 43 -7 14 -28 68 -46
120 -19 52 -42 106 -51 120 -10 14 -21 36 -25 49 -4 12 -18 39 -31 58 -13 20
-24 40 -24 45 0 5 -17 35 -39 66 -21 31 -41 67 -45 80 -4 12 -11 22 -16 22 -5
0 -39 44 -75 98 -82 122 -111 162 -129 176 -7 6 -33 36 -58 66 -96 120 -399
407 -573 543 -33 26 -67 53 -75 61 -8 7 -25 18 -37 25 -12 6 -28 18 -36 26 -8
8 -56 42 -106 76 -50 34 -91 65 -91 70 0 5 -6 9 -12 9 -7 0 -44 20 -81 45 -38
25 -72 45 -77 45 -4 0 -13 6 -19 14 -7 8 -35 26 -64 40 -29 14 -59 30 -67 36
-45 29 -163 89 -193 99 -20 7 -41 18 -47 26 -6 7 -26 17 -43 21 -17 3 -41 13
-52 20 -11 7 -58 29 -105 48 -47 20 -96 42 -110 50 -14 7 -41 17 -60 21 -19 4
-45 14 -57 22 -12 8 -46 21 -75 28 -29 8 -87 26 -128 41 -41 14 -111 34 -155
44 -44 10 -98 25 -120 34 -22 8 -58 15 -80 16 -22 0 -74 9 -115 20 -41 11
-124 24 -185 30 -60 6 -117 13 -125 15 -8 3 -78 11 -155 19 -78 9 -165 24
-197 36 -32 11 -64 20 -71 20 -8 0 -25 8 -38 18 -13 10 -47 26 -76 35 -28 9
-80 30 -115 46 -34 16 -74 32 -88 36 -14 4 -41 16 -60 26 -19 11 -43 19 -52
19 -10 0 -41 11 -70 24 -29 14 -100 39 -158 57 -58 17 -109 35 -115 39 -5 4
-34 13 -63 19 -29 6 -66 18 -82 26 -16 8 -58 18 -92 22 -35 3 -84 14 -109 24
-25 9 -67 20 -95 24 -27 4 -59 12 -72 16 -12 5 -68 15 -125 24 -56 8 -122 21
-147 29 -25 8 -79 17 -122 20 -42 4 -107 13 -145 22 -163 36 -962 55 -1403 33z
m5005 -3879 c203 -12 401 -38 545 -70 188 -42 237 -56 262 -72 13 -9 39 -19
58 -23 78 -16 222 -90 386 -199 94 -62 252 -193 333 -277 34 -35 141 -156 175
-199 20 -25 42 -52 49 -60 15 -17 98 -140 142 -210 16 -25 41 -64 57 -87 16
-24 38 -62 49 -85 12 -24 34 -65 49 -93 16 -27 36 -66 45 -85 9 -19 34 -71 55
-115 68 -141 88 -189 95 -222 4 -18 10 -33 15 -33 5 0 16 -24 26 -52 9 -29 20
-57 24 -63 8 -12 56 -159 65 -200 3 -16 14 -48 25 -70 10 -22 33 -87 50 -145
39 -127 56 -183 86 -275 12 -38 25 -89 29 -113 3 -24 12 -53 19 -65 8 -12 22
-49 31 -82 9 -33 28 -98 41 -145 13 -47 30 -112 38 -145 8 -33 21 -76 29 -96
9 -20 19 -60 23 -90 3 -30 12 -67 19 -84 27 -68 103 -372 116 -465 5 -35 16
-79 24 -97 9 -18 20 -58 26 -90 5 -32 16 -85 24 -118 26 -109 65 -325 65 -358
0 -18 9 -69 21 -112 11 -44 25 -131 30 -195 5 -63 13 -128 18 -145 13 -42 20
-88 36 -260 8 -82 19 -195 24 -250 21 -222 36 -565 35 -832 l0 -283 -25 -26
c-22 -23 -29 -25 -74 -20 -27 4 -114 10 -193 15 -156 10 -170 15 -261 90 -25
22 -71 51 -101 65 -30 15 -76 38 -103 51 -26 14 -60 25 -75 25 -15 0 -52 7
-82 15 -61 17 -156 36 -329 66 -62 10 -137 26 -165 33 -28 8 -77 17 -109 21
-32 4 -88 15 -125 25 -37 10 -94 20 -127 24 -33 3 -114 15 -180 26 -248 40
-323 50 -439 60 -66 5 -169 18 -230 29 -88 16 -210 24 -587 38 -469 16 -790
14 -1569 -13 -189 -6 -208 6 -175 115 26 87 76 180 120 225 46 47 173 136 194
136 8 0 37 11 65 24 87 41 303 93 466 111 30 4 118 16 195 28 121 18 188 20
490 21 317 0 360 -2 460 -21 61 -12 137 -24 170 -28 93 -10 264 -44 328 -66
31 -10 63 -19 71 -19 8 0 38 -11 68 -25 29 -14 62 -25 74 -25 12 0 57 -16 100
-36 129 -58 228 -105 244 -115 8 -5 32 -18 53 -29 20 -11 69 -42 108 -68 39
-26 88 -58 109 -72 21 -14 86 -62 143 -107 109 -86 142 -99 181 -70 35 25 16
58 -81 137 -121 99 -227 180 -269 205 -100 60 -218 125 -237 131 -12 3 -31 14
-42 24 -11 10 -31 21 -45 25 -14 4 -47 18 -75 31 -72 34 -240 93 -310 109 -33
7 -76 20 -95 28 -19 8 -55 18 -80 22 -25 4 -67 13 -95 21 -145 40 -324 56
-685 61 -230 3 -392 1 -460 -6 -311 -33 -381 -42 -464 -57 -50 -9 -133 -29
-183 -45 -51 -16 -102 -29 -112 -29 -24 0 -211 -84 -260 -116 -141 -94 -213
-197 -267 -383 -19 -65 -24 -102 -22 -165 4 -114 -13 -110 350 -92 433 22
1106 30 1438 17 266 -10 613 -35 629 -45 4 -3 81 -10 171 -16 91 -6 210 -19
265 -30 55 -10 138 -24 185 -30 222 -29 290 -39 350 -53 36 -9 92 -18 125 -22
33 -4 89 -15 125 -26 36 -10 106 -23 157 -29 51 -5 103 -14 117 -20 14 -5 62
-16 108 -24 154 -28 226 -46 295 -73 144 -59 230 -145 268 -269 20 -66 20
-384 0 -559 -8 -71 -22 -193 -30 -270 -18 -172 -40 -305 -60 -352 -8 -20 -19
-72 -25 -117 -5 -44 -18 -107 -30 -138 -11 -32 -20 -65 -20 -73 0 -20 -56
-209 -70 -234 -5 -11 -10 -28 -10 -38 0 -10 -13 -45 -30 -78 -16 -33 -30 -65
-30 -71 0 -26 -99 -234 -111 -234 -4 0 -11 -10 -15 -22 -12 -40 -88 -142 -150
-203 -82 -81 -109 -101 -174 -134 -30 -15 -64 -32 -75 -39 -75 -44 -333 -100
-530 -116 -38 -3 -146 -14 -240 -23 -148 -15 -294 -18 -1150 -18 -974 0 -981
0 -1130 23 -82 13 -177 29 -210 37 -33 8 -86 19 -117 25 -31 6 -62 17 -68 25
-6 8 -26 17 -43 20 -18 4 -49 18 -69 31 -21 13 -40 24 -43 24 -15 0 -103 68
-168 129 -100 94 -187 213 -242 331 -67 143 -95 210 -95 230 0 10 -11 38 -25
61 -14 24 -25 54 -25 67 0 13 -7 37 -17 55 -15 30 -35 96 -68 227 -8 30 -20
71 -28 90 -8 19 -17 62 -21 96 -4 33 -15 83 -25 110 -11 28 -22 84 -26 124 -4
41 -13 95 -20 120 -7 25 -24 113 -36 195 -33 210 -33 455 0 571 31 111 94 173
202 198 35 8 82 19 104 25 35 10 141 23 376 50 109 12 149 56 93 100 -32 25
-61 26 -192 7 -53 -8 -142 -18 -197 -22 -104 -7 -225 -37 -302 -76 -25 -13
-75 -51 -111 -85 -36 -35 -71 -63 -77 -63 -22 0 -169 51 -194 67 -24 15 -52
20 -271 48 -148 19 -361 19 -475 0 -49 -8 -128 -19 -174 -24 -48 -6 -91 -17
-101 -26 -17 -16 -129 -53 -185 -61 -26 -5 -37 2 -88 56 -58 60 -89 80 -201
126 -46 19 -98 28 -225 39 -91 9 -197 22 -236 30 -74 14 -86 12 -124 -29 l-25
-27 26 -25 c24 -24 40 -28 194 -46 139 -16 309 -47 408 -75 30 -8 96 -74 118
-117 14 -26 28 -89 40 -171 16 -119 16 -141 3 -260 -8 -71 -19 -177 -24 -235
-15 -154 -40 -311 -56 -344 -8 -15 -17 -51 -21 -80 -3 -28 -17 -84 -30 -124
-13 -40 -24 -87 -24 -105 0 -17 -16 -81 -36 -142 -19 -60 -42 -134 -49 -163
-8 -29 -21 -63 -29 -75 -8 -12 -17 -38 -21 -57 -4 -19 -13 -44 -20 -55 -7 -11
-26 -54 -43 -95 -47 -118 -114 -238 -177 -315 -78 -98 -256 -255 -288 -255 -5
0 -21 -9 -36 -19 -14 -10 -46 -24 -71 -31 -25 -7 -57 -19 -73 -26 -59 -31
-264 -63 -542 -84 -249 -19 -355 -21 -964 -21 -380 0 -728 5 -785 11 -55 5
-197 17 -315 25 -117 8 -223 17 -235 20 -11 3 -85 12 -162 19 -83 8 -154 21
-172 30 -16 8 -49 19 -73 22 -65 11 -217 85 -285 139 -104 84 -220 218 -251
292 -8 21 -23 49 -33 63 -9 14 -21 36 -25 50 -4 13 -23 57 -41 95 -17 39 -37
90 -43 113 -6 22 -20 60 -31 84 -11 24 -20 54 -20 68 0 14 -9 41 -19 61 -24
44 -98 360 -119 509 -6 36 -17 83 -25 106 -9 22 -19 92 -22 155 -4 63 -11 132
-16 154 -17 75 -39 350 -39 487 0 245 21 296 182 433 34 28 144 71 238 93 231
52 282 62 341 68 35 3 114 16 174 29 169 37 406 77 630 106 44 6 118 17 165
25 47 8 207 26 355 40 149 14 315 30 370 35 159 16 1232 23 1530 9 422 -19
591 -23 619 -16 29 7 56 51 56 93 0 57 -33 199 -56 244 -13 26 -24 54 -24 62
0 18 -104 149 -157 197 -49 46 -92 72 -173 105 -36 14 -81 34 -100 44 -19 10
-55 21 -80 25 -24 4 -64 16 -89 27 -24 10 -69 22 -100 25 -31 3 -78 12 -106
20 -161 46 -794 79 -1065 55 -291 -25 -361 -32 -465 -52 -60 -11 -123 -23
-140 -25 -16 -3 -52 -14 -80 -24 -27 -10 -70 -21 -95 -25 -57 -9 -324 -110
-400 -151 -14 -7 -53 -27 -88 -43 -63 -30 -253 -140 -262 -151 -5 -6 -103 -75
-158 -112 -13 -9 -56 -44 -93 -78 -60 -53 -69 -66 -69 -96 0 -28 5 -36 27 -45
32 -12 70 1 101 34 11 12 39 36 62 52 24 17 63 47 89 68 25 20 50 37 54 37 5
0 22 11 38 24 39 33 254 166 268 166 7 0 24 8 38 18 34 22 226 100 278 113 22
6 58 19 81 29 22 11 48 20 57 20 9 0 36 7 60 15 67 23 263 62 347 70 41 3 113
13 160 21 194 33 769 36 910 5 25 -6 108 -17 186 -25 210 -22 408 -68 499
-115 21 -12 45 -21 53 -21 26 0 146 -70 192 -111 48 -43 51 -48 117 -180 49
-97 57 -161 23 -179 -14 -8 -138 -8 -422 -1 -222 6 -482 13 -578 15 -227 6
-1287 -25 -1307 -37 -5 -3 -68 -13 -139 -22 -71 -8 -176 -22 -234 -30 -119
-17 -392 -52 -520 -66 -47 -6 -119 -19 -160 -29 -41 -10 -109 -23 -150 -29
-41 -6 -140 -24 -220 -41 -80 -17 -174 -35 -209 -41 -35 -5 -99 -18 -142 -29
-42 -11 -86 -20 -97 -20 -32 0 -191 -87 -279 -153 -91 -69 -113 -76 -245 -76
-125 -1 -121 -7 -116 203 3 94 14 243 26 331 11 88 26 232 31 320 6 88 17 194
25 235 8 41 19 127 25 190 5 63 17 153 25 200 31 161 46 255 55 346 5 50 17
108 25 129 9 21 20 74 25 119 6 44 19 110 30 146 12 36 21 79 21 97 0 33 50
247 68 295 6 14 14 55 18 90 4 34 15 79 25 98 9 20 20 54 24 75 3 22 15 67 25
100 10 33 28 94 40 135 12 41 31 100 42 130 11 30 24 75 29 99 5 24 17 62 28
85 10 22 23 59 29 81 5 22 22 72 37 110 15 39 32 88 37 110 6 22 21 65 34 96
13 31 24 65 24 75 0 11 9 36 20 57 12 21 25 57 30 80 11 54 46 155 64 187 7
14 17 41 21 60 4 19 15 49 25 67 11 18 22 49 26 70 3 21 12 47 19 59 7 11 28
59 46 105 18 46 41 95 51 108 10 13 18 30 18 38 0 8 11 36 23 62 13 25 44 86
68 135 24 50 56 108 71 130 15 23 28 46 28 52 0 13 72 136 129 223 20 29 45
68 56 86 11 18 34 49 50 69 17 19 41 52 55 71 164 233 507 569 705 690 253
155 476 260 591 278 22 4 61 15 85 26 107 47 472 74 694 51 259 -27 354 -40
393 -54 24 -9 94 -18 155 -22 62 -3 177 -14 257 -24 80 -11 203 -24 273 -30
71 -5 132 -12 137 -15 18 -11 538 -37 775 -37 387 -2 883 26 1215 67 63 8 176
19 250 25 276 21 367 30 430 44 91 20 306 41 1035 102 498 42 820 52 1100 34z
m-9455 -6820 c12 -7 15 -59 17 -317 2 -292 7 -368 33 -508 6 -33 17 -112 25
-175 8 -63 30 -185 49 -270 19 -85 35 -167 36 -181 0 -14 11 -58 25 -97 14
-39 25 -83 25 -97 0 -15 9 -46 20 -69 10 -24 24 -63 29 -87 6 -24 26 -84 46
-133 19 -49 35 -94 35 -100 0 -6 11 -33 25 -61 13 -27 31 -66 40 -85 9 -19 27
-53 40 -75 14 -22 29 -49 34 -61 23 -52 82 -126 164 -206 48 -49 93 -88 98
-88 6 0 25 -11 42 -24 66 -49 195 -107 277 -126 30 -7 63 -17 72 -22 10 -4 64
-15 120 -23 57 -8 135 -21 173 -29 39 -8 241 -22 455 -32 757 -36 2087 -17
2300 33 36 8 94 21 129 29 35 7 68 18 75 23 6 5 34 16 62 24 151 44 378 207
463 331 62 92 102 154 126 196 14 25 29 52 35 60 5 8 23 49 40 90 17 41 35 84
40 95 5 11 14 38 19 60 6 22 20 54 31 70 11 17 20 42 20 56 0 15 11 52 25 83
14 31 25 66 25 77 0 19 24 106 65 239 7 25 17 74 20 110 4 36 15 84 25 107 10
23 21 77 25 120 3 43 15 116 25 163 21 95 40 360 40 557 0 70 4 133 8 140 17
26 91 67 152 85 218 62 278 71 494 76 165 3 222 1 275 -11 36 -9 93 -21 126
-27 126 -25 229 -60 258 -88 l28 -28 4 -220 c2 -136 9 -249 18 -299 9 -44 18
-114 22 -155 4 -41 13 -100 21 -130 8 -30 19 -100 25 -155 6 -55 17 -111 24
-125 7 -14 25 -72 40 -130 14 -58 37 -143 51 -190 13 -47 24 -92 24 -102 0 -9
11 -40 25 -70 14 -29 25 -62 25 -73 0 -11 9 -38 20 -60 11 -22 19 -43 20 -48
0 -9 33 -85 71 -162 16 -33 29 -65 29 -71 0 -6 6 -17 14 -23 8 -7 21 -26 30
-44 9 -18 22 -41 29 -51 6 -11 27 -45 46 -75 33 -54 186 -213 249 -259 56 -41
306 -162 335 -162 8 0 48 -11 88 -24 101 -33 404 -57 1113 -88 209 -9 344 -9
600 1 540 20 1252 64 1306 81 19 5 66 15 104 21 38 6 88 19 110 29 23 10 57
21 76 25 129 27 403 216 452 310 7 14 38 62 69 107 31 46 62 100 68 120 7 20
19 42 27 48 7 7 14 18 14 24 0 7 16 50 36 96 20 47 42 105 49 130 8 25 23 63
34 85 12 21 21 51 21 66 0 15 7 46 15 70 20 55 53 184 71 274 8 39 20 86 28
106 8 19 17 73 21 120 3 46 15 125 25 174 41 190 75 710 62 931 -4 75 -3 83
16 93 14 8 75 8 206 2 102 -5 189 -12 193 -14 5 -3 53 -10 108 -17 122 -14
215 -36 235 -56 23 -23 35 -351 15 -420 l-15 -51 -107 -53 c-225 -110 -254
-126 -271 -150 -14 -20 -17 -52 -20 -170 -13 -770 -53 -1621 -82 -1782 -6 -31
-15 -157 -20 -280 -6 -137 -17 -269 -30 -343 -11 -66 -20 -149 -20 -185 0 -36
-9 -135 -19 -220 -11 -85 -25 -209 -31 -275 -6 -66 -13 -126 -16 -134 -2 -8
-11 -73 -18 -145 -8 -72 -21 -152 -30 -177 -8 -25 -20 -101 -25 -170 -6 -68
-19 -167 -30 -219 -12 -52 -21 -111 -21 -130 0 -37 -55 -344 -64 -359 -3 -4
-10 -49 -16 -99 -6 -51 -19 -115 -29 -144 -10 -29 -22 -75 -25 -103 -3 -27
-15 -90 -26 -140 -11 -49 -30 -133 -41 -185 -11 -52 -29 -118 -40 -146 -11
-28 -24 -76 -29 -107 -5 -30 -15 -68 -23 -84 -9 -16 -18 -47 -22 -68 -4 -22
-24 -92 -45 -155 -21 -63 -41 -131 -45 -150 -4 -19 -14 -46 -22 -59 -9 -14
-24 -50 -34 -80 -28 -89 -82 -225 -101 -253 -9 -14 -20 -39 -24 -54 -8 -33
-148 -310 -168 -333 -7 -9 -20 -29 -28 -46 -29 -60 -81 -151 -104 -182 -13
-17 -24 -35 -24 -39 0 -4 -11 -24 -24 -43 -13 -20 -49 -75 -80 -122 -31 -48
-63 -92 -71 -99 -8 -7 -15 -17 -15 -23 0 -9 -102 -152 -160 -224 -14 -17 -49
-63 -79 -102 -30 -39 -58 -71 -61 -71 -4 0 -11 -9 -16 -19 -5 -11 -34 -47 -64
-79 -30 -33 -93 -102 -140 -153 -172 -190 -465 -473 -645 -624 -87 -73 -149
-126 -180 -153 -47 -43 -122 -100 -145 -112 -14 -7 -32 -19 -40 -27 -8 -8 -49
-39 -90 -69 -87 -63 -100 -73 -156 -117 -39 -30 -104 -73 -163 -107 -14 -8
-28 -18 -31 -21 -16 -17 -263 -169 -276 -169 -4 0 -17 -9 -29 -20 -11 -10 -41
-30 -65 -43 -121 -64 -187 -101 -205 -113 -11 -8 -28 -14 -39 -14 -11 0 -29
-8 -40 -19 -12 -10 -61 -39 -111 -63 -49 -25 -119 -59 -154 -76 -35 -18 -72
-32 -82 -32 -10 0 -21 -5 -24 -10 -10 -16 -135 -70 -163 -70 -14 0 -50 -12
-81 -26 -157 -74 -218 -97 -311 -119 -30 -7 -95 -27 -145 -45 -49 -18 -117
-37 -150 -42 -33 -6 -89 -19 -125 -29 -36 -10 -90 -21 -120 -24 -30 -4 -80
-13 -110 -20 -30 -8 -89 -17 -130 -20 -41 -3 -113 -14 -160 -23 -128 -26 -976
-24 -1130 2 -58 9 -141 21 -185 26 -105 11 -183 27 -275 55 -41 13 -104 26
-139 30 -36 3 -81 14 -100 24 -20 10 -54 21 -76 25 -41 7 -160 49 -205 73 -14
7 -38 13 -55 13 -16 0 -48 11 -70 25 -22 13 -51 25 -64 25 -28 0 -113 35 -236
96 -49 25 -95 45 -101 44 -6 0 -22 8 -35 19 -13 10 -35 22 -48 26 -22 7 -192
88 -251 120 -14 7 -36 18 -50 25 -44 20 -86 45 -137 82 -27 20 -59 38 -70 42
-11 3 -28 14 -39 24 -10 9 -51 34 -91 54 -84 44 -365 228 -442 290 -30 24 -77
59 -106 78 -91 62 -328 248 -504 397 -322 272 -658 621 -916 953 -22 28 -52
65 -66 83 -14 18 -50 67 -80 110 -52 75 -68 100 -133 198 -76 116 -86 133 -86
142 0 6 -7 17 -15 26 -17 17 -72 106 -112 181 -13 25 -37 68 -53 95 -16 28
-36 66 -45 85 -9 19 -34 71 -56 114 -21 44 -39 87 -39 96 0 10 -7 23 -15 30
-8 7 -20 31 -27 54 -6 22 -17 50 -24 61 -7 11 -24 52 -39 90 -14 39 -37 98
-50 133 -14 34 -25 71 -25 82 0 11 -11 43 -24 72 -24 51 -110 317 -119 368 -3
14 -14 51 -26 82 -12 32 -21 72 -21 90 0 18 -7 47 -16 63 -15 28 -39 125 -70
280 -8 39 -21 90 -28 115 -8 25 -18 69 -21 99 -4 29 -15 72 -25 95 -10 22 -21
75 -25 116 -4 41 -13 93 -21 115 -21 58 -64 271 -64 315 0 20 -11 82 -24 136
-13 54 -27 136 -30 181 -4 45 -13 97 -21 116 -8 19 -19 77 -25 128 -12 104
-30 226 -60 399 -11 63 -25 167 -30 230 -6 63 -16 156 -24 205 -8 50 -18 135
-21 190 -3 55 -15 158 -26 228 -23 148 -45 400 -59 670 -6 104 -14 225 -19
270 -16 145 -31 540 -37 999 l-6 448 -31 30 c-18 17 -43 33 -57 37 -23 5 -75
29 -145 66 -16 9 -58 30 -92 48 -35 18 -69 40 -78 49 -45 50 -47 412 -2 457
49 49 632 128 687 93z m-818 -658 c24 -10 61 -22 83 -26 36 -7 172 -73 257
-125 61 -37 68 -73 75 -391 6 -289 1 -330 -35 -330 -11 0 -43 25 -73 56 -55
56 -173 162 -223 199 -15 11 -61 39 -103 63 -57 32 -86 42 -119 42 -39 0 -46
-3 -55 -27 -13 -36 2 -70 38 -84 16 -6 35 -16 43 -24 8 -7 26 -16 40 -20 75
-23 223 -153 331 -292 168 -215 169 -217 179 -407 23 -413 38 -597 65 -801 8
-60 15 -162 15 -225 1 -63 5 -137 10 -165 26 -162 59 -411 91 -675 6 -52 17
-138 25 -190 8 -52 14 -117 14 -145 0 -27 9 -84 20 -125 22 -81 37 -251 26
-294 -6 -24 -10 -26 -61 -26 -77 0 -246 77 -320 145 -46 43 -138 174 -150 215
-4 14 -13 34 -20 45 -16 26 -65 148 -65 162 0 6 -11 35 -25 65 -14 29 -25 63
-25 75 0 12 -11 43 -25 69 -14 26 -25 55 -25 64 0 15 -13 48 -70 175 -5 11
-12 31 -16 45 -4 14 -14 36 -24 50 -10 14 -21 36 -25 50 -4 14 -14 36 -23 50
-26 39 -112 214 -112 226 0 6 -11 24 -25 40 -14 16 -25 33 -25 37 0 7 -20 53
-70 162 -10 21 -27 68 -56 150 -9 28 -27 73 -40 100 -13 28 -33 84 -44 125
-12 41 -30 103 -41 137 -10 34 -19 69 -19 78 0 8 -11 47 -24 85 -14 39 -28
103 -31 143 -4 39 -13 92 -21 117 -7 25 -25 124 -39 220 -21 146 -25 210 -25
400 1 212 2 232 30 350 33 145 58 222 82 249 9 11 24 33 32 48 30 57 151 137
231 154 22 4 104 6 182 4 112 -3 151 -8 185 -23z m14475 -16 c44 -22 86 -52
111 -82 44 -49 102 -155 102 -184 0 -10 10 -39 21 -66 33 -73 45 -335 31 -668
-9 -210 -15 -272 -30 -316 -10 -30 -22 -91 -25 -135 -6 -78 -50 -292 -66 -324
-5 -9 -12 -34 -16 -56 -4 -22 -18 -66 -31 -97 -13 -32 -24 -70 -24 -85 0 -14
-8 -45 -19 -67 -10 -23 -23 -54 -29 -71 -47 -133 -102 -268 -117 -285 -7 -8
-17 -28 -21 -45 -3 -16 -24 -61 -44 -100 -90 -166 -125 -237 -176 -352 -30
-67 -54 -125 -54 -129 0 -4 -11 -22 -25 -40 -14 -18 -25 -45 -25 -60 0 -25
-29 -117 -86 -269 -14 -38 -33 -90 -41 -115 -9 -25 -24 -54 -33 -65 -10 -11
-20 -31 -23 -45 -10 -41 -85 -151 -141 -205 -90 -88 -259 -157 -328 -133 -36
13 -41 32 -29 114 6 38 13 116 16 174 4 57 16 138 26 180 11 41 22 113 25 160
3 47 12 146 19 220 8 74 22 202 30 284 8 81 17 152 20 156 3 4 10 86 15 182 6
95 19 234 30 308 10 77 21 227 24 350 4 118 15 312 26 430 11 118 20 224 20
235 0 21 71 135 146 235 57 77 207 224 273 267 30 20 84 52 120 71 91 49 109
76 74 114 -27 30 -84 23 -169 -22 -105 -55 -120 -68 -265 -212 -71 -71 -132
-128 -136 -128 -5 0 -15 5 -23 10 -13 8 -15 41 -12 217 5 383 21 503 67 503 7
0 18 6 24 14 14 16 163 91 266 132 88 36 148 43 306 39 121 -3 129 -5 196 -39z"/>
<path d="M6600 12051 c-25 -5 -76 -15 -115 -23 -38 -9 -101 -19 -139 -22 -101
-10 -295 -65 -415 -118 -251 -111 -447 -259 -585 -442 -74 -99 -83 -134 -41
-162 39 -26 65 -11 140 84 38 48 88 105 111 128 52 51 169 145 213 170 18 10
54 31 79 45 125 71 225 111 332 133 36 8 80 19 98 24 29 10 34 8 47 -12 16
-24 11 -54 -18 -111 -70 -140 -70 -138 -65 -268 4 -103 8 -127 26 -157 12 -19
22 -42 22 -51 0 -19 71 -119 118 -165 59 -59 118 -90 216 -114 202 -48 386 6
510 152 58 68 86 125 116 243 23 89 27 119 20 155 -16 82 -49 193 -64 209 -27
31 -57 102 -51 122 9 28 90 26 165 -6 33 -14 68 -25 79 -25 26 0 183 -67 226
-96 20 -13 50 -31 68 -40 17 -10 65 -41 104 -71 99 -72 142 -71 143 5 0 27
-142 147 -221 187 -19 10 -41 23 -49 29 -34 27 -204 96 -296 120 -55 14 -140
30 -190 35 -50 5 -109 17 -130 26 -30 12 -82 17 -224 20 -102 2 -205 0 -230
-4z m281 -150 c61 -23 173 -116 185 -154 4 -12 17 -34 29 -48 54 -66 54 -314
-1 -395 -13 -19 -24 -39 -24 -44 0 -21 -127 -121 -179 -141 -114 -44 -243 -30
-353 40 -100 64 -172 203 -172 331 1 131 67 279 160 355 100 82 232 103 355
56z"/>
<path d="M12525 12051 c-33 -5 -76 -13 -95 -20 -19 -6 -70 -15 -113 -21 -43
-5 -99 -16 -125 -24 -162 -52 -214 -71 -272 -99 -73 -36 -236 -141 -293 -190
-35 -29 -38 -36 -35 -77 3 -44 4 -45 38 -48 29 -2 44 5 87 40 79 66 125 98
138 98 7 0 20 9 30 20 10 11 22 20 27 20 5 0 51 20 104 45 52 25 102 45 111
45 8 0 51 12 94 27 76 25 79 26 99 8 22 -20 20 -45 -10 -105 -71 -141 -70
-139 -70 -279 0 -118 2 -136 24 -179 13 -26 26 -58 29 -72 7 -30 127 -163 165
-184 105 -58 193 -81 302 -81 169 1 295 66 401 206 44 57 60 98 85 208 19 84
22 115 15 151 -5 25 -14 72 -21 105 -6 33 -25 87 -41 120 -48 98 -27 116 100
86 106 -25 204 -63 273 -105 30 -18 62 -36 72 -39 22 -8 124 -79 157 -109 14
-13 41 -37 60 -53 31 -28 57 -57 197 -224 50 -59 81 -66 108 -25 15 22 16 30
4 62 -7 21 -34 62 -60 92 -26 30 -49 60 -51 66 -3 9 -127 126 -199 188 -14 12
-59 43 -100 70 -41 27 -91 60 -111 73 -19 12 -41 23 -49 23 -7 0 -36 11 -64
24 -124 59 -275 102 -386 111 -47 4 -112 16 -145 27 -48 15 -96 20 -240 23
-99 2 -207 0 -240 -4z m349 -147 c46 -14 73 -32 121 -79 35 -33 70 -76 79 -95
9 -19 24 -48 33 -65 14 -24 17 -57 17 -165 l0 -135 -38 -67 c-70 -125 -181
-197 -319 -206 -57 -4 -80 0 -145 24 -103 39 -196 128 -233 225 -47 125 -23
332 48 410 12 14 23 30 23 36 0 6 23 31 52 55 99 83 225 105 362 62z"/>
<path d="M3000 11777 c-44 -22 -52 -93 -14 -131 21 -21 84 -20 110 2 45 37 41
103 -7 127 -34 18 -56 19 -89 2z"/>
<path d="M3281 11756 c-32 -33 -33 -37 -22 -65 17 -41 42 -61 84 -68 30 -5 40
-1 66 26 40 41 41 78 3 114 -41 40 -88 37 -131 -7z"/>
<path d="M16105 11783 c-48 -11 -71 -86 -40 -130 8 -11 29 -23 47 -25 26 -4
38 0 60 23 61 60 15 151 -67 132z"/>
<path d="M16390 11783 c-45 -16 -55 -95 -17 -131 33 -31 90 -30 111 3 24 37
21 100 -6 119 -22 16 -59 19 -88 9z"/>
<path d="M8073 8361 c-12 -11 -32 -51 -44 -88 -21 -61 -24 -86 -24 -243 0
-146 3 -184 19 -230 52 -149 150 -271 259 -320 112 -50 132 -54 167 -33 25 14
30 24 28 47 -3 25 -13 34 -86 71 -149 75 -199 130 -245 270 -35 105 -38 261
-7 374 27 97 28 140 5 157 -26 19 -48 17 -72 -5z"/>
<path d="M11238 8359 c-25 -14 -23 -56 8 -145 24 -70 26 -85 22 -207 -3 -93
-9 -142 -20 -167 -9 -19 -20 -46 -23 -60 -11 -37 -70 -115 -116 -151 -39 -31
-168 -99 -187 -99 -17 0 -22 -44 -7 -67 9 -13 26 -25 40 -29 24 -6 102 19 175
56 59 30 156 135 189 205 61 131 66 157 66 330 -1 139 -4 170 -24 234 -13 41
-32 82 -42 92 -21 21 -54 24 -81 8z"/>
<path d="M8830 7733 c-14 -2 -42 -9 -64 -14 -38 -10 -38 -11 -33 -51 3 -22 8
-43 12 -46 3 -4 53 -9 109 -12 94 -5 107 -8 147 -35 24 -16 55 -43 70 -60 15
-16 38 -42 51 -56 13 -14 33 -36 44 -50 119 -145 410 -222 694 -182 81 11 115
23 237 79 49 23 144 109 218 199 17 19 52 50 79 68 45 28 58 32 145 35 53 2
102 9 109 14 6 6 12 25 12 43 0 41 -11 50 -84 65 -80 16 -175 -1 -236 -43 -25
-16 -97 -82 -160 -146 -63 -64 -128 -123 -145 -130 -16 -7 -52 -25 -80 -39
-49 -27 -53 -27 -250 -27 -193 1 -214 3 -265 34 -8 5 -44 23 -80 40 -72 34
-100 57 -179 150 -117 135 -225 186 -351 164z"/>
<path d="M9133 6653 c-16 -26 -41 -73 -56 -103 -14 -30 -44 -93 -66 -140 -22
-47 -49 -106 -60 -133 l-20 -47 24 -16 c37 -24 58 -5 109 100 25 52 50 98 56
101 5 3 10 14 10 24 0 10 18 58 41 106 45 98 49 148 13 153 -16 2 -29 -9 -51
-45z"/>
<path d="M10233 6684 c-8 -22 27 -123 54 -157 13 -16 23 -35 23 -44 0 -8 7
-27 15 -41 15 -29 55 -118 74 -168 7 -18 25 -43 40 -58 25 -24 28 -25 49 -10
27 19 28 48 2 97 -11 20 -20 43 -20 50 0 7 -11 28 -24 46 -14 19 -28 46 -31
62 -4 16 -10 29 -14 29 -4 0 -22 35 -41 78 -45 103 -66 132 -96 132 -14 0 -27
-7 -31 -16z"/>
<path d="M10570 6645 c-16 -19 0 -82 35 -135 12 -20 26 -50 30 -68 3 -17 11
-34 16 -38 5 -3 23 -33 40 -67 18 -34 40 -74 50 -88 10 -14 21 -37 25 -52 7
-30 54 -60 78 -51 32 12 28 44 -13 119 -23 41 -41 80 -41 86 0 7 -6 20 -14 28
-14 16 -54 87 -108 193 -26 51 -59 88 -79 88 -4 0 -12 -7 -19 -15z"/>
<path d="M8811 6615 c-17 -20 -31 -41 -31 -47 0 -6 -11 -26 -25 -44 -14 -18
-25 -38 -25 -45 0 -7 -18 -40 -39 -73 -21 -34 -42 -72 -46 -86 -4 -14 -16 -35
-28 -47 -27 -30 -35 -114 -13 -132 24 -20 56 5 91 73 17 32 46 87 66 124 85
157 130 257 127 281 -5 41 -39 39 -77 -4z"/>
<path d="M10898 6609 c-30 -17 -19 -70 29 -135 13 -17 23 -34 23 -37 0 -11
125 -227 177 -308 13 -19 23 -37 23 -41 0 -14 48 -20 69 -8 29 15 26 41 -7 92
-51 76 -92 149 -98 174 -4 13 -14 30 -23 37 -19 14 -41 46 -96 141 -45 78 -71
100 -97 85z"/>
<path d="M8499 6588 c-14 -13 -32 -37 -41 -53 -46 -89 -72 -132 -99 -164 -16
-19 -29 -40 -29 -46 0 -5 -14 -28 -30 -49 -17 -22 -30 -44 -30 -50 0 -5 -12
-27 -26 -47 -18 -26 -24 -47 -22 -71 3 -29 6 -33 33 -33 32 0 51 23 121 140
19 33 48 80 64 105 16 25 45 77 65 115 21 39 44 77 52 87 8 9 13 30 11 50 -4
42 -34 49 -69 16z"/>
<path d="M8163 6538 c-11 -13 -33 -43 -50 -68 -16 -25 -57 -85 -89 -133 -32
-49 -64 -97 -70 -108 -6 -10 -18 -27 -26 -36 -8 -10 -35 -55 -59 -100 l-44
-82 21 -22 c15 -15 28 -19 43 -14 20 6 171 222 171 245 0 5 11 22 25 37 14 16
33 42 43 60 9 18 39 69 65 115 43 73 47 85 36 105 -16 29 -40 29 -66 1z"/>
<path d="M11225 6537 c-9 -33 -1 -48 120 -246 49 -81 61 -100 99 -157 11 -16
34 -52 52 -80 42 -65 56 -76 91 -72 39 4 44 50 10 87 -26 28 -107 156 -107
168 0 5 -16 31 -36 58 -19 28 -67 98 -106 158 -57 85 -76 107 -94 107 -16 0
-25 -7 -29 -23z"/>
<path d="M11601 6437 c-21 -21 -12 -75 19 -110 17 -19 30 -38 30 -41 0 -4 12
-23 28 -43 15 -20 38 -55 52 -79 14 -24 50 -80 81 -126 31 -46 71 -107 89
-135 26 -44 37 -53 60 -53 27 0 40 15 40 47 0 18 -52 105 -83 140 -11 12 -25
31 -31 42 -6 10 -30 53 -54 95 -24 42 -48 76 -53 76 -5 0 -13 8 -17 18 -4 9
-28 49 -54 88 -49 73 -86 102 -107 81z"/>
<path d="M7797 6428 c-10 -7 -25 -25 -35 -40 -71 -110 -153 -226 -166 -237 -9
-7 -16 -19 -16 -25 0 -6 -21 -42 -47 -81 -25 -38 -57 -87 -71 -107 -37 -56
-17 -103 38 -91 18 4 88 104 169 239 17 28 40 59 51 69 11 10 20 24 20 31 0 7
11 26 25 42 14 17 25 32 25 35 0 4 18 32 40 63 22 32 40 65 40 74 0 36 -41 51
-73 28z"/>
<path d="M7365 6268 c-20 -24 -46 -59 -56 -78 -24 -43 -62 -99 -84 -123 -22
-25 -105 -156 -105 -166 0 -5 -7 -14 -16 -22 -9 -7 -23 -27 -32 -44 -61 -114
-57 -103 -37 -125 27 -30 50 -25 77 17 32 52 46 72 103 153 28 39 57 85 67
101 9 17 23 38 32 48 9 10 16 21 16 24 0 4 17 32 38 63 20 31 42 64 47 73 6 9
18 27 28 40 31 43 18 81 -28 81 -7 0 -30 -19 -50 -42z"/>
<path d="M11982 6298 c-20 -20 -15 -32 51 -130 34 -52 69 -106 77 -120 8 -15
41 -64 73 -110 31 -46 57 -88 57 -95 0 -6 6 -16 14 -22 8 -7 24 -32 35 -56 35
-75 100 -97 109 -37 3 19 -73 167 -105 204 -8 9 -22 30 -31 47 -10 16 -48 75
-87 132 -38 56 -80 118 -92 137 -31 52 -77 74 -101 50z"/>
<path d="M6917 6090 c-14 -11 -37 -41 -53 -67 -15 -27 -47 -75 -71 -108 -62
-85 -114 -168 -163 -260 -23 -44 -47 -86 -52 -92 -17 -21 -1 -43 32 -43 25 0
36 9 73 60 23 34 54 77 70 97 15 20 27 41 27 48 0 6 9 20 20 30 11 10 22 26
26 37 3 11 20 40 37 65 18 25 41 60 52 78 11 18 32 51 48 74 31 47 33 63 11
85 -20 21 -26 20 -57 -4z"/>
<path d="M12437 6093 c-10 -10 -8 -61 2 -67 5 -4 35 -45 66 -94 32 -48 68
-103 81 -122 13 -19 27 -44 31 -55 5 -11 33 -58 63 -105 30 -47 60 -95 66
-105 16 -28 78 -28 82 0 1 11 -5 31 -13 45 -8 14 -22 40 -30 59 -9 18 -24 45
-34 60 -53 78 -111 172 -111 179 0 5 -11 19 -25 32 -14 13 -25 28 -25 33 0 11
-55 101 -80 130 -14 17 -60 23 -73 10z"/>
<path d="M8795 5410 c-44 -4 -92 -13 -107 -18 -15 -6 -67 -16 -115 -22 -48 -6
-113 -17 -143 -25 -30 -8 -102 -21 -160 -29 -96 -14 -202 -34 -380 -72 -36 -7
-92 -14 -125 -14 -33 -1 -80 -5 -105 -11 -107 -23 -212 -37 -315 -44 -60 -4
-127 -11 -148 -16 -53 -14 -114 -72 -128 -121 -11 -41 -5 -93 12 -104 21 -13
65 9 91 45 43 60 79 72 270 87 93 8 204 20 246 28 42 8 133 24 202 36 69 12
145 26 170 32 75 16 150 28 250 38 53 5 111 16 130 24 19 7 100 24 180 37 122
19 181 23 370 22 252 -1 363 -15 465 -61 58 -25 66 -26 250 -26 177 -1 193 1
240 22 28 13 93 33 145 44 185 41 714 21 871 -33 31 -10 78 -22 105 -25 65 -8
357 -56 564 -94 91 -16 224 -34 295 -40 254 -20 273 -26 315 -97 15 -25 26
-33 48 -33 37 0 52 17 52 57 0 64 -61 137 -133 158 -26 8 -101 17 -165 21 -64
4 -151 15 -192 26 -41 11 -124 23 -185 28 -100 8 -211 25 -400 64 -173 36
-347 65 -423 71 -46 4 -109 16 -140 27 -52 19 -79 21 -287 22 -209 0 -236 -2
-290 -21 -33 -11 -80 -24 -105 -28 -25 -3 -72 -16 -105 -27 -42 -15 -95 -22
-176 -26 -101 -4 -130 -1 -220 21 -57 14 -126 29 -153 32 -28 4 -72 16 -100
27 -41 16 -80 20 -220 23 -94 2 -207 0 -251 -5z"/>
<path d="M8623 4310 c-18 -7 -23 -17 -23 -43 0 -39 32 -67 95 -84 22 -6 87
-27 145 -47 170 -58 270 -84 345 -91 39 -4 106 -14 150 -23 104 -22 572 -24
680 -4 39 8 123 20 187 27 65 8 126 19 137 24 11 6 53 18 93 26 40 9 114 31
163 49 50 19 101 38 115 41 51 15 80 44 80 81 0 28 -5 36 -27 45 -23 8 -40 6
-93 -15 -36 -14 -78 -28 -95 -32 -16 -4 -40 -14 -52 -21 -12 -8 -58 -21 -103
-29 -44 -7 -90 -18 -101 -24 -31 -17 -271 -50 -442 -62 -249 -16 -742 24 -794
64 -6 5 -40 13 -75 18 -34 6 -83 19 -108 29 -61 25 -233 81 -245 81 -5 -1 -20
-5 -32 -10z"/>
<path d="M9143 3577 c-83 -165 -136 -304 -137 -362 -1 -38 1 -40 32 -43 24 -3
33 1 37 15 3 10 17 39 30 66 14 26 25 53 25 61 0 13 38 105 64 156 7 14 21 51
31 82 20 64 12 88 -29 88 -16 0 -29 -16 -53 -63z"/>
<path d="M10163 3625 c-8 -23 2 -76 26 -128 12 -25 21 -51 21 -57 0 -6 8 -27
19 -48 10 -20 22 -53 26 -72 4 -19 14 -46 23 -60 10 -14 22 -38 28 -55 9 -24
17 -30 40 -30 25 0 29 4 32 32 3 30 -25 112 -77 226 -12 25 -21 53 -21 62 0 9
-9 29 -19 44 -11 15 -23 39 -26 54 -11 41 -60 63 -72 32z"/>
<path d="M9422 3582 c-23 -34 -31 -53 -47 -122 -23 -97 -45 -174 -61 -211 -9
-20 -14 -51 -12 -70 3 -30 7 -34 35 -37 36 -4 63 25 63 68 1 14 10 50 21 80
11 30 26 89 34 130 8 41 18 89 23 105 19 62 -23 105 -56 57z"/>
<path d="M9905 3587 c-14 -21 -13 -29 4 -78 10 -30 21 -81 26 -114 4 -33 15
-76 25 -95 10 -19 21 -55 25 -80 7 -46 29 -80 50 -80 7 0 23 8 35 18 l21 17
-19 55 c-11 30 -23 75 -27 100 -4 25 -13 63 -20 85 -7 22 -21 65 -30 96 -28
96 -59 122 -90 76z"/>
<path d="M9672 3568 c-13 -13 -18 -401 -6 -432 9 -25 51 -20 61 7 12 33 5 408
-8 424 -14 16 -31 17 -47 1z"/>
<path d="M6584 3072 c-6 -4 -14 -25 -18 -47 -8 -55 9 -300 29 -415 9 -52 19
-109 21 -127 5 -36 26 -48 56 -32 19 10 20 17 14 73 -21 209 -35 380 -36 441
0 92 -7 115 -34 115 -11 0 -26 -4 -32 -8z"/>
<path d="M12602 2885 c-16 -20 -21 -52 -31 -187 -6 -90 -18 -215 -27 -280 -12
-87 -13 -121 -4 -137 12 -23 39 -28 44 -8 2 6 14 43 26 82 20 65 29 145 47
421 8 123 -13 163 -55 109z"/>
<path d="M6976 2618 c-12 -20 -11 -40 4 -149 22 -157 54 -315 79 -394 17 -55
21 -60 47 -60 24 0 30 5 32 28 2 15 -6 56 -16 90 -11 34 -23 89 -26 122 -3 34
-12 78 -21 99 -9 21 -20 90 -26 154 -9 112 -16 131 -46 132 -7 0 -19 -10 -27
-22z"/>
<path d="M12211 2436 c-14 -17 -46 -146 -56 -226 -4 -30 -15 -74 -25 -97 -10
-23 -22 -68 -25 -100 -4 -32 -16 -73 -26 -91 -30 -52 -20 -92 23 -92 30 0 75
123 118 323 10 49 23 94 28 100 12 15 23 145 16 175 -7 25 -35 29 -53 8z"/>
<path d="M7450 2186 c0 -43 34 -158 80 -276 12 -30 29 -75 38 -100 38 -111 71
-165 103 -165 21 0 24 4 23 40 0 22 -8 56 -16 75 -32 69 -67 155 -74 180 -3
14 -13 32 -20 41 -8 9 -31 67 -52 130 -31 97 -40 114 -59 117 -21 3 -23 -1
-23 -42z"/>
<path d="M11747 2053 c-2 -4 -28 -69 -58 -143 -29 -74 -63 -151 -76 -170 -13
-19 -23 -40 -23 -47 0 -6 -11 -33 -25 -59 -29 -54 -33 -112 -9 -121 22 -8 64
13 64 33 0 9 12 42 26 73 15 31 32 70 39 86 7 17 24 55 39 86 14 31 29 71 32
90 4 19 18 55 31 81 31 59 28 92 -9 96 -14 2 -28 0 -31 -5z"/>
<path d="M7932 1902 c-15 -10 14 -95 64 -184 18 -31 36 -67 39 -80 4 -13 15
-34 25 -48 10 -14 21 -36 25 -48 13 -45 68 -122 85 -122 48 0 44 67 -8 144
-17 25 -40 64 -51 88 -11 24 -25 50 -30 58 -15 22 -71 148 -71 158 0 13 -35
42 -51 42 -8 0 -20 -4 -27 -8z"/>
<path d="M11307 1800 c-14 -11 -29 -35 -32 -53 -4 -17 -16 -44 -26 -59 -11
-14 -19 -30 -19 -36 0 -5 -12 -27 -26 -48 -15 -21 -40 -64 -55 -95 -16 -31
-36 -62 -44 -69 -22 -18 -19 -67 5 -80 25 -14 56 15 94 86 15 27 30 56 34 64
58 104 121 234 123 255 2 23 -10 55 -21 55 -4 0 -19 -9 -33 -20z"/>
<path d="M8396 1704 c-9 -8 -16 -16 -16 -18 0 -12 45 -125 54 -136 28 -33 116
-197 116 -216 0 -20 48 -57 66 -50 14 5 16 15 10 53 -3 26 -12 54 -20 62 -7 9
-25 39 -38 66 -106 211 -131 255 -148 255 -5 0 -16 -7 -24 -16z"/>
<path d="M10861 1634 c-12 -9 -30 -32 -40 -53 -11 -20 -26 -43 -35 -50 -8 -7
-18 -25 -21 -41 -4 -16 -29 -62 -56 -102 -52 -78 -65 -133 -32 -145 17 -7 63
37 63 61 0 7 11 23 25 36 14 13 25 31 25 39 0 9 14 36 31 61 43 64 89 156 89
179 0 26 -23 33 -49 15z"/>
<path d="M9691 1586 c-9 -11 -13 -64 -12 -206 0 -104 3 -195 6 -200 11 -19 35
-10 45 16 6 14 10 101 10 194 0 146 -2 171 -18 190 -16 20 -19 20 -31 6z"/>
<path d="M9247 1583 c-15 -14 -6 -86 17 -141 13 -31 26 -77 30 -101 4 -24 10
-49 14 -55 4 -6 14 -31 22 -56 12 -37 19 -45 40 -45 35 0 37 29 7 128 -32 108
-49 174 -54 217 -3 19 -12 41 -21 48 -17 13 -45 16 -55 5z"/>
<path d="M10070 1538 c-7 -24 -17 -61 -25 -83 -7 -22 -16 -60 -20 -85 -3 -25
-13 -69 -21 -98 -17 -60 -11 -92 16 -92 22 0 64 104 79 197 5 34 17 75 25 92
9 16 16 48 16 71 0 38 -2 40 -30 40 -26 0 -30 -5 -40 -42z"/>
<path d="M8860 1545 c-15 -19 2 -89 37 -150 12 -22 23 -50 23 -61 0 -12 9 -33
20 -47 12 -14 25 -40 31 -57 12 -33 43 -41 53 -14 15 39 0 93 -54 194 -10 19
-21 52 -25 73 -4 22 -17 45 -32 57 -31 24 -37 25 -53 5z"/>
<path d="M10428 1511 c-13 -15 -37 -55 -52 -87 -16 -32 -36 -75 -47 -96 -26
-54 -33 -100 -16 -122 21 -29 39 -15 76 61 18 37 42 85 53 106 26 52 51 136
44 153 -9 22 -32 16 -58 -15z"/>
<path d="M6688 20979 c-25 -14 -40 -47 -33 -70 10 -30 83 -57 172 -64 43 -3
125 -17 183 -30 58 -13 150 -31 205 -40 55 -10 134 -28 175 -40 41 -13 122
-38 180 -55 58 -17 139 -43 180 -57 41 -14 106 -37 144 -50 38 -13 74 -27 80
-32 6 -5 31 -14 56 -21 25 -7 52 -18 60 -25 8 -7 32 -18 52 -24 20 -7 94 -41
165 -76 70 -36 131 -65 136 -65 13 0 185 -101 198 -116 6 -8 16 -14 21 -14 29
0 485 -303 528 -350 3 -3 21 -17 40 -30 78 -54 361 -303 469 -412 25 -26 114
-118 197 -204 106 -109 157 -155 170 -152 26 5 48 49 40 81 -8 32 -94 135
-233 277 -125 128 -104 107 -193 190 -140 131 -268 239 -375 320 -48 36 -114
87 -148 113 -33 27 -84 62 -113 78 -29 17 -58 37 -64 44 -7 8 -18 15 -25 15
-7 0 -29 14 -50 30 -21 17 -42 30 -48 30 -6 0 -20 9 -31 19 -12 10 -47 33 -79
50 -32 17 -64 36 -70 41 -7 6 -61 35 -122 66 -60 31 -114 62 -118 70 -4 8 -17
14 -29 14 -11 0 -41 11 -67 24 -25 14 -100 48 -166 76 -66 28 -133 57 -150 65
-16 8 -55 23 -85 33 -30 11 -68 24 -85 31 -99 36 -248 84 -300 96 -33 8 -86
23 -117 35 -32 11 -73 20 -92 20 -20 0 -59 9 -88 19 -29 11 -116 29 -193 41
-77 12 -186 30 -242 41 -117 22 -113 22 -135 8z"/>
</g>
</svg>
